<?xml version="1.0" standalone="no"?>
<!DOCTYPE svg PUBLIC "-//W3C//DTD SVG 20010904//EN"
 "http://www.w3.org/TR/2001/REC-SVG-20010904/DTD/svg10.dtd">
<svg version="1.0" xmlns="http://www.w3.org/2000/svg"
 width="147.000000pt" height="190.000000pt" viewBox="0 0 147.000000 190.000000"
 preserveAspectRatio="xMidYMid meet">

<g transform="translate(0.000000,190.000000) scale(0.100000,-0.100000)"
fill="#000000" stroke="none">
<path d="M592 1889 c-156 -29 -301 -173 -343 -341 -12 -52 -8 -269 6 -303 8
-17 7 -18 -7 -7 -23 18 -51 4 -43 -22 3 -11 9 -71 14 -132 5 -62 15 -125 24
-145 20 -43 32 -94 47 -189 14 -89 26 -132 50 -180 12 -25 20 -73 25 -165 12
-227 18 -256 66 -335 l44 -70 254 0 c223 0 257 2 273 17 10 9 34 66 54 127 34
107 35 115 29 208 -9 120 -3 151 33 164 23 9 31 23 54 100 15 49 30 103 34
119 7 36 21 77 41 124 25 56 51 245 44 319 0 7 -12 23 -26 36 -24 22 -24 25
-15 107 14 123 -4 218 -64 337 -49 98 -178 197 -295 228 -59 15 -221 17 -299
3z m183 -543 c15 -12 17 -16 5 -17 -8 -1 -27 -3 -42 -5 -15 -1 -30 1 -33 6 -3
5 -20 7 -38 4 -24 -4 -28 -3 -17 5 8 6 22 11 31 11 9 0 22 7 29 15 13 15 25
12 65 -19z m-233 -188 c-7 -7 -12 -8 -12 -2 0 14 12 26 19 19 2 -3 -1 -11 -7
-17z m-82 2 c0 -5 -2 -10 -4 -10 -3 0 -8 5 -11 10 -3 6 -1 10 4 10 6 0 11 -4
11 -10z m460 -11 c0 -5 -10 -9 -21 -9 -18 0 -19 2 -9 15 12 15 30 12 30 -6z
m320 -149 c0 -5 -2 -10 -4 -10 -3 0 -8 5 -11 10 -3 6 -1 10 4 10 6 0 11 -4 11
-10z m-532 -73 c2 -12 -1 -15 -12 -11 -19 7 -22 38 -3 32 6 -3 13 -12 15 -21z
m-13 -317 c-3 -5 -17 -10 -31 -10 -14 0 -22 4 -19 10 3 6 17 10 31 10 14 0 22
-4 19 -10z m60 -1 c4 -6 5 -12 3 -14 -7 -7 -48 7 -48 16 0 13 37 11 45 -2z"/>
</g>
</svg>
